<svg xmlns="http://www.w3.org/2000/svg" viewBox="0 0 684 400"><title>Colaboratory logo</title><path d="M126.72,126.72,58.58,58.58c-78.1,78.1-78.1,204.74,0,282.84l68.14-68.14A103.64,103.64,0,0,1,126.72,126.72Z" style="fill:#e8710a"/><path d="M58.58,58.58l68.14,68.14a103.64,103.64,0,0,1,146.56,0l49.46-84.65h0q-1.47-1.15-3-2.26h0C241.44-18.92,129.82-12.67,58.58,58.58Z" style="fill:#f9ab00"/><path d="M323,357.69h0l-49.77-84.41a103.64,103.64,0,0,1-146.56,0L58.58,341.42c71.24,71.24,182.87,77.5,261.2,18.77,1.1-.82,3.27-2.5,3.27-2.5" style="fill:#f9ab00"/><path d="M342.58,58.58c-78.1,78.1-78.1,204.74,0,282.84l68.14-68.14A103.64,103.64,0,1,1,557.28,126.72l68.14-68.14C547.32-19.53,420.68-19.53,342.58,58.58Z" style="fill:#f9ab00"/><path d="M625.42,58.58l-68.14,68.14A103.64,103.64,0,0,1,410.72,273.28l-68.14,68.14c78.1,78.1,204.74,78.1,282.84,0S703.53,136.68,625.42,58.58Z" style="fill:#e8710a"/></svg>
